#define cross_width 48
#define cross_height 60
static char cross_bits[] = {
 0x00,0x00,0x00,0x00,0x00,0x00,0x00,0x00,0x00,0x00,0x00,0x00,0x00,0x00,0x00,
 0x00,0x00,0x00,0x00,0x00,0x00,0x00,0x00,0x00,0x00,0x00,0x00,0x00,0x00,0x00,
 0x00,0x00,0x00,0x00,0x00,0x00,0x00,0x00,0x00,0x00,0x00,0x04,0x00,0x00,0x00,
 0x00,0x00,0x06,0x00,0x00,0x00,0x00,0x00,0x07,0x00,0x00,0x00,0x00,0x80,0x03,
 0x00,0x01,0x00,0x00,0xc0,0x01,0x80,0x03,0x00,0x00,0xc0,0x00,0x00,0x03,0x00,
 0x00,0x60,0x00,0x00,0x06,0x00,0x00,0x30,0x00,0x00,0x0e,0x00,0x00,0x38,0x00,
 0x00,0x0c,0x00,0x00,0x1c,0x00,0x00,0x18,0x00,0x00,0x0e,0x00,0x00,0x38,0x00,
 0x00,0x07,0x00,0x00,0x30,0x00,0x80,0x03,0x00,0x00,0x60,0x00,0xc0,0x01,0x00,
 0x00,0xe0,0x00,0xe0,0x00,0x00,0x00,0xc0,0x01,0x60,0x00,0x00,0x00,0x80,0x01,
 0x30,0x00,0x00,0x00,0x80,0x03,0x18,0x00,0x00,0x00,0x00,0x07,0x1c,0x00,0x00,
 0x00,0x00,0x06,0x0e,0x00,0x00,0x00,0x00,0x0c,0x07,0x00,0x00,0x00,0x00,0x9c,
 0x03,0x00,0x00,0x00,0x00,0xd8,0x01,0x00,0x00,0x00,0x00,0xf0,0x00,0x00,0x00,
 0x00,0x00,0x70,0x00,0x00,0x00,0x00,0x00,0x70,0x00,0x00,0x00,0x00,0x00,0xd8,
 0x00,0x00,0x00,0x00,0x00,0xdc,0x01,0x00,0x00,0x00,0x00,0x8e,0x01,0x00,0x00,
 0x00,0x00,0x07,0x03,0x00,0x00,0x00,0x80,0x03,0x07,0x00,0x00,0x00,0xc0,0x01,
 0x06,0x00,0x00,0x00,0xe0,0x00,0x0c,0x00,0x00,0x00,0x70,0x00,0x1c,0x00,0x00,
 0x00,0x30,0x00,0x18,0x00,0x00,0x00,0x18,0x00,0x30,0x00,0x00,0x00,0x0c,0x00,
 0x70,0x00,0x00,0x00,0x0e,0x00,0xe0,0x00,0x00,0x00,0x07,0x00,0xc0,0x00,0x00,
 0x80,0x03,0x00,0xc0,0x01,0x00,0xc0,0x01,0x00,0x80,0x03,0x00,0x00,0x00,0x00,
 0x00,0x03,0x00,0x00,0x00,0x00,0x00,0x06,0x00,0x00,0x00,0x00,0x00,0x0e,0x00,
 0x00,0x00,0x00,0x00,0x0c,0x00,0x00,0x00,0x00,0x00,0x18,0x00,0x00,0x00,0x00,
 0x00,0x38,0x00,0x00,0x00,0x00,0x00,0x30,0x00,0x00,0x00,0x00,0x00,0x60,0x00,
 0x00,0x00,0x00,0x00,0x60,0x00,0x00,0x00,0x00,0x00,0x00,0x00,0x00,0x00,0x00,
 0x00,0x00,0x00,0x00,0x00,0x00,0x00,0x00,0x00,0x00,0x00,0x00,0x00,0x00,0x00
 };
