#define k_width 88
#define k_height 98
static char k_bits[] = {
 0xf8,0xff,0xff,0xff,0xff,0xff,0xff,0xff,0xff,0xff,0x7f,0xf8,0xff,0xff,0xff,
 0xff,0xff,0xff,0xff,0xff,0xff,0x7f,0x04,0x00,0x00,0x00,0x00,0x00,0x00,0x00,
 0x00,0x00,0x80,0x53,0xad,0x6a,0x55,0xab,0x5a,0xd5,0x02,0x00,0x40,0x55,0x23,
 0xad,0x6a,0x55,0xab,0x5a,0xd5,0x02,0x00,0x20,0x95,0x8b,0x00,0x00,0x00,0x00,
 0x00,0x00,0x00,0x00,0x80,0x40,0x23,0x94,0xa4,0x24,0x25,0x29,0x49,0x05,0x00,
 0x20,0x24,0x0b,0x09,0x11,0x11,0x10,0x12,0x22,0x00,0x00,0x80,0x08,0x8b,0x88,
 0x90,0x10,0x11,0x11,0x21,0x04,0x00,0x40,0x14,0x23,0x25,0x02,0x42,0x42,0x44,
 0x04,0x01,0x00,0x20,0x41,0x0b,0x88,0x88,0x08,0x09,0x01,0x11,0x04,0x00,0x10,
 0x24,0xa3,0x02,0x22,0x22,0x22,0x24,0xc4,0x10,0x00,0xa0,0x10,0x23,0x81,0x02,
 0x02,0x02,0x04,0xc4,0x28,0x00,0x20,0x09,0xff,0x17,0x68,0xf8,0xaa,0xa0,0x10,
 0x82,0x42,0x15,0x50,0xaf,0x5e,0x01,0xd9,0x3f,0x02,0x42,0x28,0x14,0xa0,0x02,
 0xab,0x32,0x54,0xbc,0x6b,0x24,0x89,0x82,0x40,0x0a,0x54,0x57,0xed,0x0a,0x5f,
 0x5d,0x14,0x82,0x22,0x20,0x08,0x48,0xbb,0xb2,0xe1,0xb5,0xf7,0x49,0x28,0x48,
 0x89,0x82,0x22,0xe3,0xaf,0x49,0x4f,0xd8,0x13,0x01,0x01,0x20,0x48,0x88,0xeb,
 0x53,0xe1,0x1b,0xbb,0x41,0x14,0x54,0x8a,0x02,0x02,0x8b,0x56,0x73,0x33,0x85,
 0x51,0x14,0x2a,0x08,0x21,0x42,0x23,0x58,0xff,0xff,0x20,0x05,0xc1,0x80,0x20,
 0x94,0x10,0x8b,0xaa,0xf6,0x4d,0x47,0x20,0x04,0x2a,0x46,0x21,0x42,0x23,0x58,
 0xdb,0xb2,0x13,0x89,0xd0,0x80,0x10,0x04,0x14,0x23,0x5a,0xf7,0xbf,0x0c,0x91,
 0x54,0x48,0x10,0x08,0x04,0xfb,0x67,0xef,0xff,0x5f,0x08,0x80,0x02,0x41,0x41,
 0x50,0xff,0xaf,0xfe,0xff,0x1c,0x51,0x55,0x28,0x08,0x14,0x05,0xf7,0x6b,0xdf,
 0xf6,0x7b,0x04,0x80,0x82,0x52,0x21,0x50,0xf7,0xed,0xeb,0xfe,0x6f,0x80,0x90,
 0x10,0x91,0x20,0x54,0xfb,0xdf,0xeb,0x6f,0x5f,0x25,0x42,0x42,0x20,0x8a,0x00,
 0xff,0xd7,0xf7,0xdf,0x7d,0x80,0x88,0x14,0x8a,0x00,0xa5,0x1f,0xf4,0xeb,0xbb,
 0x66,0x05,0x22,0x40,0x20,0x52,0x10,0x0b,0x3c,0xcb,0xc4,0x86,0x02,0x22,0x10,
 0x28,0x34,0x42,0xa3,0xd6,0x77,0x90,0x5f,0xa8,0x08,0xa5,0x00,0x41,0x10,0x0b,
 0xd6,0x4b,0xa5,0x1b,0x02,0x22,0x00,0x52,0x14,0x45,0xa3,0xee,0xf7,0x80,0x5f,
 0x98,0x00,0xaa,0x04,0x21,0x10,0xa3,0xed,0x96,0x80,0x5e,0x28,0x42,0x48,0x88,
 0x20,0x14,0x8b,0xf1,0xea,0x12,0x1a,0x82,0x10,0x11,0x21,0x8a,0x40,0xa3,0xd3,
 0xef,0x48,0xbe,0x18,0x02,0x44,0x88,0x00,0x09,0x8b,0xfd,0x7f,0x82,0x1c,0x42,
 0x28,0x11,0x05,0x4a,0xa4,0x8b,0xeb,0x72,0x81,0x12,0x41,0x2a,0xfa,0x0f,0x42,
 0x28,0xa3,0xed,0x74,0x0a,0x40,0x14,0x00,0xf9,0x5f,0x14,0x81,0x8b,0x93,0xd0,
 0xa0,0x94,0xe5,0xff,0xff,0x3f,0xff,0x7f,0xff,0xeb,0xff,0xbc,0xda,0x9d,0xbf,
 0x7f,0xef,0xff,0xff,0xeb,0xd5,0x5e,0x27,0x5b,0x7f,0xeb,0xea,0xf3,0x8b,0xa7,
 0xdb,0xab,0xea,0x59,0xa5,0x95,0x16,0x4b,0x2f,0x6f,0xe9,0x93,0xd5,0x22,0xbd,
 0x2a,0x41,0x52,0x24,0xa1,0x00,0x4a,0x5f,0x2b,0x6d,0x4f,0xa5,0x95,0xee,0xb1,
 0x2c,0xdd,0x6e,0x6b,0xd6,0x60,0x12,0x02,0x0c,0x29,0xb5,0x40,0x44,0xa5,0x7b,
 0xab,0x56,0x6b,0xf5,0xd5,0x16,0x4b,0x2f,0x8d,0x6e,0x03,0xd4,0x10,0xcd,0x19,
 0x29,0xb0,0x7d,0xa9,0x32,0x91,0x5f,0x6a,0x72,0x6b,0xa5,0xbd,0x36,0x6f,0x6f,
 0xcd,0x6e,0x83,0xd4,0x04,0xb2,0x5b,0x81,0x84,0xb4,0xda,0x7a,0x42,0x7b,0x2a,
 0xf3,0x6b,0xe5,0xd7,0x36,0xcb,0x2f,0x8f,0x76,0x0b,0xd5,0xa8,0x0c,0x12,0x08,
 0x2d,0xb7,0xf0,0xaa,0x04,0xdb,0xaa,0xda,0x6c,0xad,0x95,0x56,0x6b,0x3f,0xad,
 0x76,0x1f,0xd6,0xa0,0x00,0xd8,0x7a,0xeb,0x3c,0x86,0x84,0x04,0xdf,0x2a,0x56,
 0x6f,0xa5,0x9d,0x96,0xcb,0x2f,0x71,0xe9,0xb3,0xd5,0x21,0x90,0x2a,0xa1,0x28,
 0x22,0x50,0x8f,0x17,0x7b,0x2e,0x63,0x70,0xfa,0xed,0xfd,0x2b,0xd8,0x13,0x6d,
 0x03,0xd5,0x88,0x02,0x10,0x01,0x5e,0x02,0x20,0xa0,0x40,0x5b,0x2e,0x2d,0x00,
 0x1f,0x80,0x11,0xb3,0x12,0x03,0x75,0x03,0xd4,0x00,0x00,0x00,0x54,0x20,0x01,
 0x00,0x10,0x00,0x03,0x2c,0x01,0x00,0x00,0x00,0x00,0x00,0x00,0x00,0x00,0x03,
 0xd4,0x00,0x00,0x00,0x00,0x00,0x00,0x00,0x00,0x00,0x03,0x2c,0x01,0x00,0x00,
 0x00,0x00,0x00,0x00,0x00,0x00,0x03,0xd4,0x00,0x00,0x00,0x00,0x00,0x00,0x00,
 0x00,0x00,0x03,0x2c,0x01,0x00,0x00,0x00,0x00,0x00,0x00,0x00,0x00,0x03,0xd4,
 0x02,0x00,0x00,0x00,0x00,0x00,0x00,0x00,0x00,0x03,0x2c,0x01,0x00,0x00,0x00,
 0x00,0x00,0x00,0x00,0x00,0x03,0x38,0x01,0x00,0x00,0x00,0x00,0x00,0x00,0x00,
 0x00,0x03,0x38,0x01,0x00,0x00,0x00,0x00,0x00,0x00,0x00,0x00,0x03,0xd8,0x12,
 0x00,0x00,0x00,0x00,0x00,0x00,0x00,0x00,0x03,0x38,0x0d,0x00,0x00,0x00,0x00,
 0x00,0x00,0x00,0x00,0x03,0x38,0x0d,0x00,0x00,0x00,0x00,0x00,0x00,0x00,0x00,
 0x03,0x28,0x2d,0x00,0x00,0x00,0x00,0x00,0x00,0x00,0x00,0x03,0xf0,0x52,0x00,
 0x00,0x00,0x00,0x00,0x00,0x00,0x00,0x03,0xf0,0x52,0x00,0x00,0x00,0x00,0x00,
 0x00,0x00,0x00,0x03,0x38,0xad,0x00,0x00,0x00,0x00,0x00,0x00,0x00,0x00,0x03,
 0xf8,0xad,0x04,0x00,0x00,0x00,0x00,0x00,0x00,0x00,0x03,0x30,0x53,0x03,0x00,
 0x00,0x00,0x00,0x00,0x00,0x00,0x03,0x30,0x53,0x03,0x00,0x00,0x00,0x00,0x00,
 0x00,0x00,0x03,0x28,0xaf,0x34,0x00,0x00,0x00,0x00,0x00,0x00,0x00,0x03,0xea,
 0xaf,0x34,0x00,0x00,0x00,0x00,0x00,0x00,0x00,0x03,0xea,0xaf,0x34,0x00,0x00,
 0x00,0x00,0x00,0x00,0x00,0x03,0xf0,0xdc,0x03,0x00,0x00,0x00,0x00,0x00,0x00,
 0x00,0x43,0x2a,0xad,0x04,0x00,0x00,0x00,0x00,0x00,0x00,0x00,0x5b,0x2a,0x2d,
 0x00,0x00,0x00,0x00,0x00,0x00,0x00,0x00,0x5b,0x2a,0x2d,0x00,0x00,0x00,0x00,
 0x00,0x00,0x00,0x00,0x03,0x00,0x00,0x00,0x00,0x00,0x00,0x00,0x00,0x00,0x00,
 0x5b,0x2a,0x0d,0x00,0x00,0x00,0x00,0x00,0x00,0x00,0x00,0x03,0x01,0x00,0x00,
 0x00,0x00,0x00,0x00,0x00,0x00,0x00,0x5b,0x2a,0x00,0x00,0x00,0x00,0x00,0x00,
 0x00,0x00,0x00,0x03,0x00,0x00,0x00,0x00,0x00,0x00,0x00,0x00,0x00,0x00,0x5b,
 0x02,0x00,0x00,0x00,0x00,0x00,0x00,0x00,0x00,0x00,0x03,0x00,0x00,0x00,0x00,
 0x00,0x00,0x00,0x00,0x00,0x00,0x5b,0x00,0x00,0x00,0x00,0x00,0x00,0x00,0x00,
 0x00,0x00,0x04,0x00,0x00,0x00,0x00,0x00,0x00,0x00,0x00,0x00,0x80};
