#define nougth_width 48
#define nougth_height 60
static unsigned char nougth_bits[] = {
  0x00, 0x00, 0x00, 0x00, 0x00, 0x00, 0x00, 0x00, 0x00, 0x00, 0x00, 0x00,
  0x00, 0x00, 0x00, 0x00, 0x00, 0x00, 0x00, 0x00, 0x00, 0x00, 0x00, 0x00,
  0x00, 0x00, 0x00, 0x00, 0x00, 0x00, 0x00, 0x00, 0x00, 0x00, 0x00, 0x00,
  0x00, 0x00, 0x00, 0x00, 0x00, 0x00, 0x00, 0x00, 0xf0, 0x1f, 0x00, 0x00,
  0x00, 0x00, 0xfe, 0x7f, 0x00, 0x00, 0x00, 0x80, 0x1f, 0xf0, 0x01, 0x00,
  0x00, 0xe0, 0x03, 0xc0, 0x03, 0x00, 0x00, 0xf0, 0x00, 0x00, 0x07, 0x00,
  0x00, 0x38, 0x00, 0x00, 0x0e, 0x00, 0x00, 0x18, 0x00, 0x00, 0x1c, 0x00,
  0x00, 0x1c, 0x00, 0x00, 0x18, 0x00, 0x00, 0x0c, 0x00, 0x00, 0x38, 0x00,
  0x00, 0x0e, 0x00, 0x00, 0x30, 0x00, 0x00, 0x06, 0x00, 0x00, 0x30, 0x00,
  0x00, 0x06, 0x00, 0x00, 0x70, 0x00, 0x00, 0x06, 0x00, 0x00, 0x70, 0x00,
  0x00, 0x07, 0x00, 0x00, 0x60, 0x00, 0x00, 0x03, 0x00, 0x00, 0x60, 0x00,
  0x00, 0x03, 0x00, 0x00, 0xe0, 0x00, 0x00, 0x03, 0x00, 0x00, 0xe0, 0x00,
  0x00, 0x03, 0x00, 0x00, 0x60, 0x00, 0x00, 0x03, 0x00, 0x00, 0x60, 0x00,
  0x00, 0x03, 0x00, 0x00, 0x60, 0x00, 0x00, 0x03, 0x00, 0x00, 0x70, 0x00,
  0x00, 0x03, 0x00, 0x00, 0x30, 0x00, 0x80, 0x03, 0x00, 0x00, 0x30, 0x00,
  0x80, 0x01, 0x00, 0x00, 0x30, 0x00, 0x80, 0x01, 0x00, 0x00, 0x30, 0x00,
  0x80, 0x01, 0x00, 0x00, 0x30, 0x00, 0x80, 0x03, 0x00, 0x00, 0x30, 0x00,
  0x80, 0x07, 0x00, 0x00, 0x38, 0x00, 0x00, 0x06, 0x00, 0x00, 0x18, 0x00,
  0x00, 0x0e, 0x00, 0x00, 0x1c, 0x00, 0x00, 0x3c, 0x00, 0x00, 0x0e, 0x00,
  0x00, 0x38, 0x00, 0x00, 0x06, 0x00, 0x00, 0x70, 0x00, 0x00, 0x07, 0x00,
  0x00, 0xe0, 0x00, 0x80, 0x03, 0x00, 0x00, 0xc0, 0x03, 0xf0, 0x01, 0x00,
  0x00, 0x80, 0xff, 0xff, 0x01, 0x00, 0x00, 0x00, 0xfe, 0x1f, 0x00, 0x00,
  0x00, 0x00, 0x00, 0x00, 0x00, 0x00, 0x00, 0x00, 0x00, 0x00, 0x00, 0x00,
  0x00, 0x00, 0x00, 0x00, 0x00, 0x00, 0x00, 0x00, 0x00, 0x00, 0x00, 0x00,
  0x00, 0x00, 0x00, 0x00, 0x00, 0x00, 0x00, 0x00, 0x00, 0x00, 0x00, 0x00,
  0x00, 0x00, 0x00, 0x00, 0x00, 0x00, 0x00, 0x00, 0x00, 0x00, 0x00, 0x00,
  0x00, 0x00, 0x00, 0x00, 0x00, 0x00, 0x00, 0x00, 0x00, 0x00, 0x00, 0x00,
  0x00, 0x00, 0x00, 0x00, 0x00, 0x00, 0x00, 0x00, 0x00, 0x00, 0x00, 0x00,
  0x00, 0x00, 0x00, 0x00, 0x00, 0x00, 0x00, 0x00, 0x00, 0x00, 0x00, 0x00,
  0x00, 0x00, 0x00, 0x00, 0x00, 0x00, 0x00, 0x00, 0x00, 0x00, 0x00, 0x00,
  };
